<?xml version="1.0" encoding="UTF-8"?>
<svg xmlns="http://www.w3.org/2000/svg" xmlns:xlink="http://www.w3.org/1999/xlink" width="48px" height="48px" viewBox="0 0 48 48" version="1.1">
<g id="surface1">
<path style=" stroke:none;fill-rule:nonzero;fill:rgb(28.235294%,68.235294%,88.627451%);fill-opacity:1;" d="M 47.371094 10.066406 C 46.476562 9.171875 38.859375 1.554688 37.929688 0.625 C 36.039062 -1.265625 33.175781 1.59375 35.066406 3.484375 L 36.214844 4.632812 L 30.21875 10.628906 C 29.429688 11.417969 29.429688 12.699219 30.21875 13.488281 L 34.507812 17.777344 C 35.296875 18.566406 36.578125 18.566406 37.367188 17.777344 L 43.363281 11.78125 L 44.511719 12.929688 C 46.386719 14.804688 49.289062 11.984375 47.371094 10.066406 Z M 47.371094 10.066406 "/>
<path style=" stroke:none;fill-rule:nonzero;fill:rgb(22.352941%,63.921569%,85.882353%);fill-opacity:1;" d="M 47.371094 10.066406 C 46.3125 9.007812 43.585938 6.28125 42.648438 5.347656 L 32.363281 15.632812 L 34.507812 17.777344 C 35.296875 18.566406 36.578125 18.566406 37.367188 17.777344 L 43.363281 11.78125 L 44.511719 12.929688 C 46.386719 14.804688 49.289062 11.984375 47.371094 10.066406 Z M 47.371094 10.066406 "/>
<path style=" stroke:none;fill-rule:nonzero;fill:rgb(28.235294%,68.235294%,88.627451%);fill-opacity:1;" d="M 0.59375 47.402344 C -0.199219 46.613281 -0.199219 45.332031 0.59375 44.542969 L 11.378906 33.753906 C 13.269531 31.863281 16.132812 34.722656 14.242188 36.617188 L 3.453125 47.402344 C 2.664062 48.191406 1.382812 48.195312 0.59375 47.402344 Z M 0.59375 47.402344 "/>
<path style=" stroke:none;fill-rule:nonzero;fill:rgb(22.352941%,63.921569%,85.882353%);fill-opacity:1;" d="M 14.242188 33.753906 L 0.59375 47.402344 C 1.382812 48.191406 2.664062 48.195312 3.453125 47.402344 L 14.242188 36.617188 C 15.03125 35.824219 15.03125 34.542969 14.242188 33.753906 Z M 14.242188 33.753906 "/>
<path style=" stroke:none;fill-rule:nonzero;fill:rgb(78.039216%,91.372549%,95.686275%);fill-opacity:1;" d="M 42.628906 22.082031 C 42.019531 21.472656 26.316406 5.773438 25.914062 5.367188 C 24.023438 3.476562 21.160156 6.335938 23.050781 8.226562 L 25.257812 10.433594 L 6.660156 29.035156 C 5.867188 29.824219 5.867188 31.105469 6.660156 31.894531 L 16.101562 41.335938 C 16.890625 42.128906 18.171875 42.128906 18.960938 41.335938 L 37.5625 22.738281 L 39.769531 24.945312 C 41.660156 26.835938 44.523438 23.976562 42.628906 22.082031 Z M 42.628906 22.082031 "/>
<path style=" stroke:none;fill-rule:nonzero;fill:rgb(50.196078%,81.568627%,88.235294%);fill-opacity:1;" d="M 42.628906 22.082031 C 41.824219 21.277344 35.320312 14.773438 34.269531 13.722656 C 33.324219 14.671875 12.324219 35.671875 11.378906 36.617188 L 16.101562 41.335938 C 16.890625 42.128906 18.171875 42.128906 18.960938 41.335938 L 37.5625 22.738281 L 39.769531 24.945312 C 41.660156 26.835938 44.523438 23.976562 42.628906 22.082031 Z M 42.628906 22.082031 "/>
<path style=" stroke:none;fill-rule:nonzero;fill:rgb(50.196078%,81.568627%,88.235294%);fill-opacity:1;" d="M 19.726562 15.964844 L 24.304688 20.542969 C 26.195312 22.433594 29.058594 19.574219 27.164062 17.683594 L 22.585938 13.105469 Z M 19.726562 15.964844 "/>
<path style=" stroke:none;fill-rule:nonzero;fill:rgb(50.196078%,81.568627%,88.235294%);fill-opacity:1;" d="M 19.820312 25.027344 C 21.710938 26.917969 24.574219 24.058594 22.683594 22.164062 L 18.105469 17.585938 L 15.242188 20.449219 Z M 19.820312 25.027344 "/>
<path style=" stroke:none;fill-rule:nonzero;fill:rgb(50.196078%,81.568627%,88.235294%);fill-opacity:1;" d="M 15.339844 29.507812 C 17.230469 31.398438 20.09375 28.539062 18.199219 26.648438 L 13.621094 22.070312 L 10.761719 24.929688 Z M 15.339844 29.507812 "/>
</g>
</svg>
